<svg id="Layer_1" data-name="Layer 1" xmlns="http://www.w3.org/2000/svg" viewBox="0 0 176 124"><defs><style>.cls-1{fill:#fff;}</style></defs><path class="cls-1" d="M184,96s0,28.82-3.68,42.64a22.12,22.12,0,0,1-15.56,15.66C151,158,96,158,96,158s-55,0-68.76-3.7a22.12,22.12,0,0,1-15.56-15.66C8,124.82,8,96,8,96s0-28.82,3.68-42.64A22.12,22.12,0,0,1,27.24,37.7C41,34,96,34,96,34s55,0,68.76,3.7a22.12,22.12,0,0,1,15.56,15.66C184,67.18,184,96,184,96ZM78,122.17,124,96,78,69.83Z" transform="translate(-8 -34)"/></svg>